<svg width="32" height="32" viewBox="0 0 32 32" fill="none" xmlns="http://www.w3.org/2000/svg">
<path d="M22.2567 2.03564L25.3817 3.59814C25.2442 4.14064 24.8067 5.00252 24.1254 5.92877C23.2942 7.06252 22.1504 8.33127 20.9754 9.50002C19.8067 10.675 18.5942 11.7625 17.6317 12.5438C17.1504 12.9313 16.7254 13.25 16.4067 13.4563C16.2504 13.5563 16.1192 13.6375 16.0317 13.6813C16.0129 13.6875 16.0129 13.6875 16.0004 13.6875C15.9879 13.6875 15.9879 13.6875 15.9692 13.6813C15.8817 13.6375 15.7504 13.5563 15.5942 13.4563C15.2754 13.25 14.8504 12.9313 14.3692 12.5438C13.4067 11.7625 12.1942 10.675 11.0254 9.50002C9.85043 8.33127 8.70668 7.06252 7.87543 5.92939C7.19418 5.00252 6.75668 4.14064 6.61918 3.59814L9.74418 2.03564C10.6567 3.89377 11.5754 5.91939 12.5067 7.66252C13.5192 9.56877 14.4817 11.1438 15.7504 11.7813L16.0004 11.9063L16.2504 11.7813C17.5192 11.1438 18.4817 9.56877 19.4942 7.66252C20.4254 5.91939 21.3442 3.89314 22.2567 2.03564ZM16.0004 8.83752C16.4942 8.83752 16.9692 8.88127 17.4192 8.95627C16.9067 9.71877 16.4192 10.3 16.0004 10.6125C15.5817 10.3 15.0942 9.71877 14.5817 8.95627C15.0317 8.88127 15.5067 8.83752 16.0004 8.83752ZM21.1942 10.8688C22.6504 12.2875 23.4379 14.2813 23.4379 16.275V16.3125C21.3754 15.5625 18.6942 15.2125 16.0004 15.2125C13.3067 15.2125 10.6254 15.5625 8.56293 16.3125V16.275C8.56293 14.2813 9.35043 12.2875 10.8067 10.8688C11.8192 11.8438 12.8192 12.7313 13.6629 13.4125C14.1629 13.8188 14.6067 14.1563 14.9754 14.3938C15.1567 14.5188 15.3192 14.6125 15.4754 14.6875C15.6317 14.7625 15.7504 14.8375 16.0004 14.8375C16.2504 14.8375 16.3692 14.7625 16.5254 14.6875C16.6817 14.6125 16.8442 14.5188 17.0254 14.3938C17.3942 14.1563 17.8379 13.8188 18.3379 13.4125C19.1817 12.7313 20.1817 11.8438 21.1942 10.8688ZM25.2129 13.2625C26.5004 14.5125 27.1817 14.9 29.2004 15.5938C28.4129 17.15 27.5817 18.5375 25.6379 19.4188L24.5567 16.1688C24.5504 15.8125 24.5254 15.4563 24.4754 15.1L25.2129 13.2625ZM6.78793 13.2625L7.52543 15.1C7.47543 15.4563 7.45043 15.8125 7.44418 16.1688L6.36293 19.4188C4.41856 18.5375 3.5873 17.15 2.7998 15.5938C4.81855 14.9 5.4998 14.5125 6.78793 13.2625ZM16.5629 16.3438C19.3817 16.4 22.1442 16.8875 23.8879 17.7313L25.6629 23.0438L22.9567 21.8063C22.7129 20.3313 22.5629 18.9125 22.5629 18.15V17.2375L21.7504 17.6438C20.0067 18.5188 18.2817 18.9938 16.5629 19.0813V16.3438ZM15.4379 16.3438V19.0813C13.7192 18.9938 11.9942 18.5188 10.2504 17.6438L9.43793 17.2375V18.15C9.43793 18.9125 9.28793 20.3313 9.04418 21.8063L6.33793 23.0438L8.11293 17.7313C9.85668 16.8875 12.6192 16.4 15.4379 16.3438ZM21.4754 19.0188C21.5567 20.1813 21.7754 21.7375 22.0754 23.2438C22.2629 24.2063 22.4879 25.1313 22.7317 25.8938C22.9754 26.6625 23.1879 27.2563 23.6004 27.675L23.7692 27.8375H24.0004C24.8817 27.8375 26.4317 27.9125 27.2942 28.4375C27.1817 28.525 26.9942 28.6375 26.7504 28.7438C26.1629 28.9938 25.2567 29.225 24.1567 29.4063C21.9567 29.775 18.9754 29.9625 16.0004 29.9625C13.0254 29.9625 10.0442 29.775 7.84418 29.4063C6.74418 29.225 5.8373 28.9938 5.2498 28.7438C5.00605 28.6375 4.81855 28.525 4.70605 28.4375C5.5623 27.9125 7.11918 27.8375 8.00043 27.8375H8.23168L8.40043 27.675C8.81293 27.2563 9.02543 26.6625 9.26918 25.8938C9.51293 25.1313 9.73793 24.2063 9.92543 23.2438C10.2254 21.7375 10.4442 20.1813 10.5254 19.0188C14.1504 20.6 17.8504 20.6 21.4754 19.0188ZM8.80043 23.1563C8.61918 24.0375 8.41293 24.8813 8.20043 25.5563C8.01918 26.125 7.81918 26.5125 7.69418 26.7125C6.99418 26.7063 5.9623 26.7125 5.00605 27.0313L5.8498 24.5063L8.80043 23.1563ZM23.2004 23.1563L26.1504 24.5063L26.9942 27.0313C26.0379 26.7125 25.0067 26.7063 24.3067 26.7125C24.1817 26.5125 23.9817 26.125 23.8004 25.5563C23.5879 24.8813 23.3817 24.0375 23.2004 23.1563Z" fill="#181818"/>
</svg>
