<svg width="25" height="24" viewBox="0 0 25 24" fill="none" xmlns="http://www.w3.org/2000/svg">
<path d="M12.7439 4C13.278 4.00294 14.6143 4.01586 16.0341 4.07273L16.5375 4.09468C17.967 4.16236 19.3953 4.27798 20.1037 4.4755C21.0486 4.74095 21.7913 5.5155 22.0423 6.49732C22.442 8.05641 22.492 11.0994 22.4982 11.8358L22.4991 11.9884V11.9991C22.4991 11.9991 22.4991 12.0028 22.4991 12.0099L22.4982 12.1625C22.492 12.8989 22.442 15.9419 22.0423 17.501C21.7878 18.4864 21.0451 19.261 20.1037 19.5228C19.3953 19.7203 17.967 19.8359 16.5375 19.9036L16.0341 19.9255C14.6143 19.9824 13.278 19.9953 12.7439 19.9983L12.5095 19.9991H12.4991C12.4991 19.9991 12.4956 19.9991 12.4887 19.9991L12.2545 19.9983C11.1241 19.9921 6.39772 19.941 4.89451 19.5228C3.9496 19.2573 3.20692 18.4828 2.95587 17.501C2.5562 15.9419 2.50624 12.8989 2.5 12.1625V11.8358C2.50624 11.0994 2.5562 8.05641 2.95587 6.49732C3.2104 5.51186 3.95308 4.73732 4.89451 4.4755C6.39772 4.05723 11.1241 4.00622 12.2545 4H12.7439ZM10.4991 8.49914V15.4991L16.4991 11.9991L10.4991 8.49914Z" fill="#F8F8F8"/>
</svg>
